<svg xmlns="http://www.w3.org/2000/svg" shape-rendering="geometricPrecision" text-rendering="geometricPrecision" image-rendering="optimizeQuality" fill-rule="evenodd" clip-rule="evenodd" viewBox="0 0 512 312.447"><path d="M465.875 88.868a1476.252 1476.252 0 0013.345 30.674c6.142 13.692 12.763 27.877 19.011 40.361 6.67 13.305 12.447 27.521 13.571 41.986 1.137 14.661-2.475 29.492-14.681 43.766-3.08 3.601-6.578 7.063-10.446 10.373-43.973 37.613-137.375 56.421-230.672 56.419-93.293.009-186.692-18.802-230.676-56.419-3.868-3.31-7.364-6.77-10.448-10.373C2.673 231.377-.939 216.543.198 201.887c1.124-14.465 6.901-28.679 13.571-41.984 6.248-12.484 12.869-26.669 19.011-40.361a1490.392 1490.392 0 0013.345-30.67c-1.736-4.061-2.637-8.252-2.637-12.549 0-22.692 25.098-42.411 65.668-55.943C146.901 7.791 198.834 0 255.999 0c57.167 0 109.098 7.791 146.842 20.38 40.571 13.532 65.669 33.251 65.669 55.943 0 4.295-.902 8.483-2.635 12.545zm-69.509-52.412c-35.757-11.928-85.374-19.307-140.367-19.307-54.991 0-104.61 7.381-140.367 19.307-32.928 10.984-53.3 25.144-53.3 39.867 0 14.725 20.372 28.885 53.3 39.87 35.757 11.928 85.374 19.307 140.367 19.307 54.993 0 104.61-7.379 140.367-19.307 32.928-10.985 53.299-25.145 53.299-39.87 0-14.723-20.371-28.883-53.299-39.867zM235.208 160.377c9.379 0 16.997 11.668 16.997 26.05 0 14.385-7.618 26.057-16.997 26.057-9.387 0-17.002-11.663-17.002-26.057.006-9.707 4.964-26.05 17.002-26.05zm31.439 64.226c12.32 3.672 16.403 15.934 30.308 34.64 8.367 16.417-2.497 26.769-21.11 22.336-8.448-4.299-14.387-5.819-20.345-5.619-10.323.36-12.925 7.168-24.935 6.689-9.262-.249-13.437-4.132-14.247-10.051-.865-6.289 1.561-10.264 4.516-15.465 8.652-15.259 17.527-28.099 27.202-32.407 4.965-2.212 13.397-1.678 18.611-.123zm-66.703-24.755c-7.016 2.773-9.253 13.747-5 24.497 4.25 10.751 13.386 17.217 20.402 14.445 7.017-2.777 9.253-13.746 5.003-24.497-4.253-10.751-13.39-17.222-20.405-14.445zm112.112-.443c7.016 2.771 9.253 13.747 5 24.497-4.25 10.751-13.397 17.218-20.402 14.445-7.017-2.777-9.253-13.746-5.003-24.497 2.871-7.257 11.408-18.007 20.405-14.445zm-35.446-39.399c9.385 0 17.002 11.671 17.002 26.054 0 14.385-7.617 26.052-17.002 26.052-9.38 0-16.997-11.656-16.997-26.052.007-9.7 4.965-26.054 16.997-26.054z"/></svg>